<svg width="60" height="98" viewBox="0 0 60 98" fill="none" xmlns="http://www.w3.org/2000/svg">
<path d="M33.6223 40.9534C33.7048 40.9894 34.0144 41.0614 34.5511 41.1695C43.0134 42.6102 49.3705 45.2396 53.6223 49.0576C57.8741 52.8756 60 57.8822 60 64.0774C60 70.4167 57.6677 75.9096 53.0031 80.556C48.3385 85.2024 41.8782 87.7237 33.6223 88.12V97.9531H26.9969V88.228C18.5758 87.3996 12.1156 85.0133 7.61607 81.0693C3.11659 77.1252 0.577901 71.6053 0 64.5096L11.1455 62.7807C12.0124 68.1115 13.7668 72.2177 16.4087 75.0992C19.0506 77.9807 22.58 79.6195 26.9969 80.0157V49.0576C18.6171 47.4728 12.3426 44.8254 8.17333 41.1154C4.00409 37.4055 1.91947 32.633 1.91947 26.798C1.91947 20.9989 3.98346 16.0193 8.11142 11.8592C12.2394 7.69901 18.5345 5.29476 26.9969 4.64641V0H33.6223V4.64641C40.6398 5.25872 46.1713 7.20374 50.2167 10.4815C54.2621 13.7592 56.8008 18.3516 57.8328 24.2587L46.2538 25.7174C45.5934 22.0435 44.2105 19.135 42.1053 16.9918C40 14.8487 37.1723 13.471 33.6223 12.8587V40.9534ZM26.9969 39.7648V12.7506C22.4974 13.435 19.0505 15.0108 16.6563 17.4781C14.2621 19.9454 13.065 22.7999 13.065 26.0416C13.065 29.7515 14.3034 32.678 16.7802 34.8212C19.2569 36.9643 22.6625 38.6122 26.9969 39.7648ZM33.6223 80.0157C37.9566 79.4394 41.5273 77.7916 44.3343 75.0722C47.1414 72.3527 48.5449 68.9219 48.5449 64.7798C48.5449 61.1419 47.4819 58.2154 45.356 56.0002C43.2301 53.785 39.3189 51.903 33.6223 50.3542V80.0157Z" fill="currentColor"/>
</svg>
