<svg width="63" height="84" viewBox="0 0 63 84" fill="none" xmlns="http://www.w3.org/2000/svg">
<path d="M63 4.54356L60.7282 14.7388C56.2216 11.0449 51.124 9.19791 45.4354 9.19791C37.715 9.19791 31.6478 11.4143 27.2335 15.847C22.8193 20.2797 20.1689 25.248 19.2823 30.752H57.0712L55.6306 38.2322H18.3958L18.2849 40.3932L18.3958 45.4908H54.0237L52.5831 52.971H19.5594C20.963 60.4697 24.0013 65.9829 28.6741 69.5106C33.347 73.0383 38.6201 74.8021 44.4934 74.8021C51.438 74.8021 56.8496 72.9736 60.7282 69.3166V80.7863C56.1478 82.9288 51.0501 84 45.4354 84C25.0449 84 12.7441 73.657 8.53296 52.971H0L1.60685 45.4908H7.36938C7.29552 44.6042 7.25858 42.942 7.25858 40.504V38.2322H0L1.60685 30.752H8.08969C10.0105 20.5567 14.4617 12.8826 21.4433 7.72956C28.4248 2.57652 36.496 0 45.657 0C52.5277 0 58.3087 1.51452 63 4.54356Z" fill="currentColor"/>
</svg>
