<svg width="61" height="88" viewBox="0 0 61 88" fill="none" xmlns="http://www.w3.org/2000/svg">
<path d="M60.9632 83.9398C55.3441 86.326 50.6679 87.5191 46.9347 87.5191C44.2406 87.5191 41.5658 87.115 38.9102 86.3068C32.5214 84.3824 28.5284 83.2278 26.9311 82.8429C25.3339 82.4581 23.5155 82.2657 21.4757 82.2657C15.5102 82.2657 9.67943 84.0938 3.98338 87.75L0 77.705C8.81348 72.5862 13.2202 65.0428 13.2202 55.0747C13.2202 52.65 12.9123 50.2446 12.2965 47.8584H1.03912V39.3721H9.92961C7.96677 32.7523 6.98535 27.6721 6.98535 24.1313C6.98535 16.7033 9.49662 10.8244 14.5192 6.49465C19.5417 2.16489 25.7669 0 33.1949 0C39.5067 0 45.0488 1.78002 49.8212 5.34005C54.5936 8.90011 57.5763 14.4133 58.7694 21.8798L48.3202 23.4385C47.7429 18.7046 46.0206 15.0387 43.1534 12.4409C40.2861 9.84301 36.8896 8.54408 32.9639 8.54408C28.6149 8.54408 25.0453 9.95848 22.255 12.7873C19.4647 15.6161 18.0696 18.9163 18.0696 22.688C18.0696 27.0755 19.1664 32.6369 21.3602 39.3721H39.4875V47.8584H23.1498C23.958 49.5903 24.3621 51.303 24.3621 52.9964C24.3621 60.4244 20.8791 67.6984 13.913 74.8184L14.1439 75.1071C16.4916 74.2219 19.1857 73.7793 22.2261 73.7793C25.4975 73.7793 29.1153 74.2604 33.0794 75.2225C39.0064 76.8005 43.4709 77.5895 46.4729 77.5895C49.3979 77.5895 53.0926 76.5118 57.5571 74.3566L60.9632 83.9398Z" fill="currentColor"/>
</svg>
