<svg viewBox="0 0 24 24" xmlns="http://www.w3.org/2000/svg"><path d="m14.505 17.44c1.275-.29 2.493-.794 3.6-1.49.834-.558 1.058-1.686.5-2.52-.536-.802-1.604-1.044-2.435-.553-2.55 1.595-5.79 1.595-8.34 0-.847-.534-1.965-.28-2.5.565 0 .002 0 .004-.002.005-.534.847-.28 1.966.567 2.5l.002.002c1.105.695 2.322 1.2 3.596 1.488l-3.465 3.465c-.707.695-.72 1.83-.028 2.537l.03.03c.344.354.81.53 1.274.53.465 0 .93-.176 1.275-.53l3.421-3.404 3.404 3.406c.72.695 1.87.676 2.566-.045.678-.703.678-1.818 0-2.52zm-2.505-5.052c3.42-.004 6.19-2.774 6.195-6.193 0-3.415-2.78-6.195-6.195-6.195s-6.195 2.78-6.195 6.197c.005 3.42 2.776 6.19 6.195 6.192zm0-8.757c1.416.002 2.563 1.15 2.564 2.565 0 1.416-1.148 2.563-2.564 2.565-1.415-.002-2.562-1.148-2.565-2.564.002-1.417 1.15-2.564 2.565-2.567z"/></svg>