<svg height="24" viewBox="0 0 22 24" width="22"
    xmlns="http://www.w3.org/2000/svg">
    <g fill="none" fill-rule="evenodd">
        <path d="m-2.729167-.729167h25.458333v25.458333h-25.458333z" opacity="0" stroke="#000" stroke-width=".541667"/>
        <g fill-rule="nonzero" transform="translate(.25 .625)">
            <g fill="#8a8fa8">
                <path d="m9.61361299 22.75c1.73291021 0 3.18252081-1.2238331 3.51540211-2.84375h-7.03080421c.33305653 1.6199169 1.78266717 2.84375 3.5154021 2.84375z"/>
                <path d="m16.3229239 11.3741322c-.0038544 0-.0077088.0008678-.0115632.0008678-3.6923549 0-6.69774771-2.97653006-6.69774771-6.6353588 0-1.00583078.23354253-1.95664028.64018341-2.8116398-.2105913-.01978685-.42398576-.0321102-.64018341-.0321102-3.69901244 0-6.69774767 2.97062875-6.69774767 6.6353588v2.6427574c0 1.8759308-.82957535 3.6466789-2.2849676 4.8656521-.48513074.41049-.70045239 1.064497-.52630291 1.7025356.20288244.7421799.94345582 1.2161961 1.7204709 1.2161961h15.57236409c.8152089 0 1.5836392-.5233097 1.7490287-1.3147831.1282469-.6123505-.0918052-1.2238331-.5711543-1.6228676-1.3912688-1.155447-2.1959657-2.8532963-2.2523803-4.6466083z"/>
                <path d="m16.3229239 11.3741322c-.0038544 0-.0077088.0008678-.0115632.0008678-3.6923549 0-6.69774771-2.97653006-6.69774771-6.6353588 0-1.00583078.23354253-1.95664028.64018341-2.8116398-.2105913-.01978685-.42398576-.0321102-.64018341-.0321102-3.69901244 0-6.69774767 2.97062875-6.69774767 6.6353588v2.6427574c0 1.8759308-.82957535 3.6466789-2.2849676 4.8656521-.48513074.41049-.70045239 1.064497-.52630291 1.7025356.20288244.7421799.94345582 1.2161961 1.7204709 1.2161961h15.57236409c.8152089 0 1.5836392-.5233097 1.7490287-1.3147831.1282469-.6123505-.0918052-1.2238331-.5711543-1.6228676-1.3912688-1.155447-2.1959657-2.8532963-2.2523803-4.6466083z" transform="matrix(-1 0 0 1 19.227232 0)"/>
            </g>
            <path d="m21.0955663 4.7396412c0 2.61758994-2.1418286 4.7394676-4.7842056 4.7394676-2.6422018 0-4.7840304-2.12187766-4.7840304-4.7394676 0-2.61758998 2.1418286-4.7396412 4.7840304-4.7396412 2.642377 0 4.7842056 2.12205122 4.7842056 4.7396412z" fill="#ebebf5"/>
        </g>
    </g>
</svg>
