<svg height="24" viewBox="0 0 26 24" width="26"
    xmlns="http://www.w3.org/2000/svg">
    <g fill="none" fill-rule="evenodd" transform="translate(0 -1)">
        <path d="m.270833.270833h25.458333v25.458333h-25.458333z" opacity="0" stroke="#000" stroke-width=".541667"/>
        <rect fill="#ebebf5" height="15.708333" rx="1.083333" width="21.125" x="4.333333" y="8.666667"/>
        <rect fill="#8a8fa8" height="15.708333" rx="1.083333" width="21.125" x=".541667" y="4.875"/>
        <path d="m16.3395275 2.6256553c0-.37493182-.1295959-.6935303-.389031-.95599242-.259143-.26246212-.5742513-.3935947-.9446434-.3935947h-8.00311649c-.37044076 0-.68535433.13113258-.94478939.3935947-.25938639.26231439-.38903092.58101136-.38903092.95599242v2.2493447 4.875h10.6706112v-4.875zm-1.7783298 2.2493447h-7.11385432v-1.79946591h7.11385432z" fill="#8a8fa8" fill-rule="nonzero"/>
        <path d="m.541667 9.208333h21.125v2.166667h-21.125z" fill="#ebebf5"/>
    </g>
</svg>
