<svg height="23" viewBox="0 0 25 23" width="25"
    xmlns="http://www.w3.org/2000/svg">
    <g fill="none" fill-rule="evenodd">
        <path d="m-.729167-1.729167h25.458333v25.458333h-25.458333z" opacity="0" stroke="#000" stroke-width=".541667"/>
        <g fill-rule="nonzero">
            <path d="m17.7858958 7.4375h-1.7888958c-.9275625 0-1.391875-1.12164583-.7363125-1.77720833l1.2650833-1.26508334c.2461459-.24614583.2461459-.64564583 0-.89179166l-1.6125208-1.61252084c-.2461458-.24614583-.6456458-.24614583-.8917917 0l-1.2650833 1.26508334c-.6559167.6555625-1.7772083.19125-1.7772083-.7363125v-1.78889584c0-.3485-.2822709-.63077083-.6307709-.63077083h-2.28047913c-.34814584 0-.63041667.28227083-.63041667.63077083v1.78925c0 .9275625-1.12129167 1.391875-1.77720833.7363125l-1.26508334-1.2654375c-.24614583-.24614583-.64564583-.24614583-.89179166 0l-1.61252084 1.61252084c-.24614583.24614583-.24614583.64564583 0 .89179166l1.26508334 1.26508334c.65591666.6555625.19125 1.77720833-.7363125 1.77720833h-1.78889584c-.3485 0-.63077083.28227083-.63077083.63077083v2.28047917c0 .3481458.28227083.6304167.63077083.6304167h1.78889584c.9275625 0 1.391875 1.1216458.7363125 1.7772083l-1.26508334 1.2650833c-.24614583.2465-.24614583.6456459 0 .8917917l1.61252084 1.6125208c.24614583.2461459.64564583.2461459.89179166 0l1.26508334-1.2650833c.65591666-.6559167 1.77720833-.19125 1.77720833.7363125v1.7888958c0 .3485.28227083.6307709.63077083.6307709h2.28047917c.3481458 0 .6304167-.2822709.6304167-.6307709v-1.7888958c0-.9275625 1.1212916-1.3922292 1.7772083-.7363125l1.2650833 1.2650833c.2461459.2461459.6456459.2461459.8917917 0l1.6125208-1.6125208c.2461459-.2461458.2461459-.6456458 0-.8917917l-1.2650833-1.2650833c-.6559167-.6555625-.19125-1.7772083.7363125-1.7772083h1.7888958c.3485 0 .6307709-.2822709.6307709-.6307709v-2.28047913c0-.34814584-.2822709-.63041667-.6307709-.63041667zm-8.57756247 4.6041667c-1.56470833 0-2.83333333-1.268625-2.83333333-2.83333337 0-1.56470833 1.268625-2.83333333 2.83333333-2.83333333 1.56470837 0 2.83333337 1.268625 2.83333337 2.83333333 0 1.56470837-1.268625 2.83333337-2.83333337 2.83333337z" fill="#ebebf5" transform="translate(6.041667 3.958333)"/>
            <path d="m13.0778646 5.46875h-1.3153646c-.6820313 0-1.0234375-.82473958-.5414063-1.30677083l.9302084-.93020834c.1809896-.18098958.1809896-.47473958 0-.65572916l-1.1856771-1.18567709c-.1809896-.18098958-.4747396-.18098958-.6557292 0l-.9302083.93020834c-.48229167.48203125-1.30677083.140625-1.30677083-.54140625v-1.31536459c0-.25625-.20755209-.46380208-.46380209-.46380208h-1.67682291c-.25598959 0-.46354167.20755208-.46354167.46380208v1.315625c0 .68203125-.82447917 1.0234375-1.30677083.54140625l-.93020834-.93046875c-.18098958-.18098958-.47473958-.18098958-.65572916 0l-1.18567709 1.18567709c-.18098958.18098958-.18098958.47473958 0 .65572916l.93020834.93020834c.48229166.48203125.140625 1.30677083-.54140625 1.30677083h-1.31536459c-.25625 0-.46380208.20755208-.46380208.46380208v1.67682292c0 .25598958.20755208.46354167.46380208.46354167h1.31536459c.68203125 0 1.0234375.82473958.54140625 1.30677083l-.93020834.9302083c-.18098958.18125-.18098958.4747396 0 .6557292l1.18567709 1.1856771c.18098958.1809896.47473958.1809896.65572916 0l.93020834-.9302084c.48229166-.4822916 1.30677083-.140625 1.30677083.5414063v1.3153646c0 .25625.20755208.4638021.46380208.4638021h1.67682292c.25598958 0 .46354167-.2075521.46354167-.4638021v-1.3153646c0-.6820313.82447916-1.0236979 1.30677083-.5414063l.9302083.9302084c.1809896.1809896.4747396.1809896.6557292 0l1.1856771-1.1856771c.1809896-.1809896.1809896-.4747396 0-.6557292l-.9302084-.9302083c-.4822916-.48203125-.140625-1.30677083.5414063-1.30677083h1.3153646c.25625 0 .4638021-.20755209.4638021-.46380209v-1.67682291c0-.25598959-.2075521-.46354167-.4638021-.46354167zm-6.30703127 3.38541667c-1.15052083 0-2.08333333-.9328125-2.08333333-2.08333334 0-1.15052083.9328125-2.08333333 2.08333333-2.08333333 1.15052084 0 2.08333334.9328125 2.08333334 2.08333333 0 1.15052084-.9328125 2.08333334-2.08333334 2.08333334z" fill="#8a8fa8" transform="translate(.625 .166667)"/>
        </g>
    </g>
</svg>
