<svg height="16" viewBox="0 0 24 16" width="24" xmlns="http://www.w3.org/2000/svg"><g fill="none"><path d="m23.5402105 15.7064327h-23.12720465c-.22807018 0-.41300585-.1849356-.41300585-.4130058v-14.86750877c0-.22807018.18493567-.41300585.41300585-.41300585h23.12725145c.2280702 0 .4130059.18493567.4130059.41300585v14.86750877c0 .228117-.1849825.4130058-.4130527.4130058z" fill="#f5f5f5"/><g fill="#ff4b55"><path d="m23.9532632 1.22016374h-23.9532632v-.79424561c0-.22807018.18493567-.41300585.41300585-.41300585h23.12725145c.2280702 0 .4130059.18493567.4130059.41300585z"/><path d="m0 4.841684h23.953216v1.207205h-23.953216z"/><path d="m0 2.427181h23.953216v1.207205h-23.953216z"/><path d="m23.9532164 8.46329825h-23.54021055c-.22807018 0-.41300585-.18493568-.41300585-.41300585v-.79424562h23.9532164z"/><path d="m0 12.085193h23.953216v1.207205h-23.953216z"/><path d="m23.5402105 15.7064327h-23.12720465c-.22807018 0-.41300585-.1849356-.41300585-.4130058v-.7941988h23.9532164v.7942456c0 .2280702-.1849357.412959-.4130059.412959z"/><path d="m0 9.67069h23.953216v1.207205h-23.953216z"/></g><path d="m10.7376374.01295906h-10.32463155c-.22807018 0-.41300585.18488889-.41300585.41295907v7.62432748c0 .22807018.18493567.41300585.41300585.41300585h10.32467835c.2280702 0 .4130059-.18493567.4130059-.41300585v-7.62432748c0-.22807018-.1849825-.41295907-.4130527-.41295907z" fill="#41479b"/><g fill="#f5f5f5" transform="translate(.654971 .888889)"><path d="m.50474854.07195322.0914152.27415204.28898246.00219883c.0374269.00032749.05291228.04804679.02283041.07026901l-.23246784.17169591.08720468.27550877c.01132164.03564912-.02933333.06521637-.05978947.0434152l-.23508772-.168-.23508772.16804679c-.03045614.02175438-.07101755-.00776609-.05978948-.04341521l.08720468-.27550877-.23246783-.17169591c-.03008187-.022269-.01459649-.06994152.02283041-.070269l.28898245-.00219883.09141521-.27415205c.01178947-.03555556.06194152-.03555556.07382456-.00004678z"/><path d="m.50474854 1.50605848.0914152.27415205.28898246.00219883c.0374269.00032748.05291228.04804678.02283041.070269l-.23246784.17169591.08720468.27550877c.01132164.03564912-.02933333.06521638-.05978947.04341521l-.23508772-.168-.23508772.16804678c-.03045614.02175439-.07101755-.00776608-.05978948-.04341521l.08720468-.27550877-.23246783-.1716959c-.03008187-.02226901-.01459649-.06994152.02283041-.07026901l.28898245-.00219883.09141521-.27415205c.01178947-.03550877.06194152-.03550877.07382456-.00004678z"/><path d="m.50474854 2.94016374.0914152.27415205.28898246.00219883c.0374269.00032749.05291228.04804678.02283041.07026901l-.23246784.1716959.08720468.27550877c.01132164.03564913-.02933333.06521638-.05978947.04341521l-.23508772-.168-.23508772.16804678c-.03045614.02175439-.07101755-.00776608-.05978948-.0434152l.08720468-.27550877-.23246783-.17169591c-.03008187-.02226901-.01459649-.06994152.02283041-.07026901l.28898245-.00219883.09141521-.27415204c.01178947-.03550878.06194152-.03550878.07382456-.00004679z"/><path d="m.50474854 4.37431579.0914152.27415205.28898246.00219883c.0374269.00032748.05291228.04804678.02283041.070269l-.23246784.17169591.08720468.27550877c.01132164.03564912-.02933333.06521638-.05978947.04341521l-.23508772-.168-.23508772.16804678c-.03045614.02175439-.07101755-.00776608-.05978948-.04341521l.08720468-.27550877-.23246783-.1716959c-.03008187-.02226901-.01459649-.06994152.02283041-.07026901l.28898245-.00219883.09141521-.27415205c.01178947-.03555555.06194152-.03555555.07382456-.00004678z"/><path d="m.50474854 5.80842105.0914152.27415205.28898246.00219883c.0374269.00032749.05291228.04804678.02283041.07026901l-.23246784.1716959.08720468.27550877c.01132164.03564913-.02933333.06521638-.05978947.04341521l-.23508772-.168-.23508772.16804678c-.03045614.02175439-.07101755-.00776608-.05978948-.0434152l.08720468-.27550877-.23246783-.17169591c-.03008187-.02226901-.01459649-.06994152.02283041-.07026901l.28898245-.00219883.09141521-.27415204c.01178947-.03560234.06194152-.03560234.07382456-.00004679z"/><path d="m1.61787135.77506433.0914152.27415204.28898246.00219883c.0374269.00032749.05291228.04804679.02283041.07026901l-.23246784.17169591.08720468.27550877c.01132163.03564912-.02933334.06521637-.05978948.0434152l-.23508772-.16804678-.23508771.16804678c-.03045615.02175439-.07101755-.00776608-.05978948-.0434152l.08720468-.27550877-.23246784-.17169591c-.03008187-.02226901-.01459649-.06994152.02283041-.07026901l.28898246-.00219883.0914152-.27415204c.01174269-.03546199.06198831-.03546199.07382457 0z"/><path d="m1.61787135 2.20921637.0914152.27415205.28898246.00219883c.0374269.00032749.05291228.04804679.02283041.07026901l-.23246784.1716959.08720468.27550878c.01132163.03564912-.02933334.06521637-.05978948.0434152l-.23508772-.16804678-.23508771.16804678c-.03045615.02175439-.07101755-.0077193-.05978948-.0434152l.08720468-.27550878-.23246784-.1716959c-.03008187-.02226901-.01459649-.06994152.02283041-.07026901l.28898246-.00219883.0914152-.27415205c.01174269-.03550877.06198831-.03550877.07382457 0z"/><path d="m1.61787135 3.64332164.0914152.27415204.28898246.00219883c.0374269.00032749.05291228.04804679.02283041.07026901l-.23246784.17169591.08720468.27550877c.01132163.03564912-.02933334.06521637-.05978948.0434152l-.23508772-.16804678-.23508771.16804678c-.03045615.02175439-.07101755-.00776608-.05978948-.0434152l.08720468-.27550877-.23246784-.17169591c-.03008187-.02226901-.01459649-.06994152.02283041-.07026901l.28898246-.00219883.0914152-.27415204c.01174269-.03550877.06198831-.03550877.07382457 0z"/><path d="m1.61787135 5.0774269.0914152.27415205.28898246.00219883c.0374269.00032748.05291228.04804678.02283041.070269l-.23246784.17169591.08720468.27550877c.01132163.03564912-.02933334.06521638-.05978948.04341521l-.23508772-.16804679-.23508771.16804679c-.03045615.02175438-.07101755-.00776609-.05978948-.04341521l.08720468-.27550877-.23246784-.17169591c-.03008187-.022269-.01459649-.06994152.02283041-.070269l.28898246-.00219883.0914152-.27415205c.01174269-.03546199.06198831-.03546199.07382457 0z"/><path d="m2.73099415.07195322.09141521.27415204.28898245.00219883c.0374269.00032749.05291228.04804679.02283041.07026901l-.23246783.17169591.08720467.27550877c.01132164.03564912-.02933333.06521637-.05978947.0434152l-.23508772-.16804678-.23508772.16804678c-.03045614.02175439-.07101754-.00776608-.05978947-.0434152l.08720468-.27550877-.23246784-.17169591c-.03008187-.02226901-.01459649-.06994152.02283041-.07026901l.28898246-.00219883.0914152-.27415204c.01178947-.03550878.0619883-.03550878.07382456 0z"/><path d="m2.73099415 1.50605848.09141521.27415205.28898245.00219883c.0374269.00032748.05291228.04804678.02283041.070269l-.23246783.17169591.08720467.27550877c.01132164.03564912-.02933333.06521638-.05978947.04341521l-.23508772-.16804679-.23508772.16804679c-.03045614.02175438-.07101754-.00776609-.05978947-.04341521l.08720468-.27550877-.23246784-.17169591c-.03008187-.022269-.01459649-.06994152.02283041-.070269l.28898246-.00219883.0914152-.27415205c.01178947-.03546199.0619883-.03546199.07382456 0z"/><path d="m2.73099415 2.94016374.09141521.27415205.28898245.00219883c.0374269.00032749.05291228.04804678.02283041.07026901l-.23246783.1716959.08720467.27550877c.01132164.03564913-.02933333.06521638-.05978947.04341521l-.23508772-.16804678-.23508772.16804678c-.03045614.02175438-.07101754-.00776608-.05978947-.04341521l.08720468-.27550877-.23246784-.1716959c-.03008187-.02226901-.01459649-.06994152.02283041-.07026901l.28898246-.00219883.0914152-.27415205c.01178947-.03546199.0619883-.03546199.07382456 0z"/><path d="m2.73099415 4.37431579.09141521.27415205.28898245.00219883c.0374269.00032748.05291228.04804678.02283041.070269l-.23246783.17169591.08720467.27550877c.01132164.03564912-.02933333.06521638-.05978947.04341521l-.23508772-.16804679-.23508772.16804679c-.03045614.02175438-.07101754-.00776609-.05978947-.04341521l.08720468-.27550877-.23246784-.17169591c-.03008187-.022269-.01459649-.06994152.02283041-.070269l.28898246-.00219883.0914152-.27415205c.01178947-.03550877.0619883-.03550877.07382456 0z"/><path d="m2.73099415 5.80842105.09141521.27415205.28898245.00219883c.0374269.00032749.05291228.04804678.02283041.07026901l-.23246783.1716959.08720467.27550877c.01132164.03564913-.02933333.06521638-.05978947.04341521l-.23508772-.16804678-.23508772.16804678c-.03045614.02175438-.07101754-.00776608-.05978947-.04341521l.08720468-.27550877-.23246784-.1716959c-.03008187-.02226901-.01459649-.06994152.02283041-.07026901l.28898246-.00219883.0914152-.27415205c.01178947-.03555555.0619883-.03555555.07382456 0z"/><path d="m3.84416374.77506433.09141521.27415204.28898245.00219883c.0374269.00032749.05291228.04804679.02283041.07026901l-.23246783.17169591.08720467.27550877c.01132164.03564912-.02933333.06521637-.05978947.0434152l-.23508772-.16804678-.23508772.16804678c-.03045614.02175439-.07101754-.00776608-.05978947-.0434152l.08720468-.27550877-.23246784-.17169591c-.03008187-.02226901-.01459649-.06994152.02283041-.07026901l.28898246-.00219883.0914152-.27415204c.01174269-.03546199.06198831-.03546199.07382456 0z"/><path d="m3.84416374 2.20921637.09141521.27415205.28898245.00219883c.0374269.00032749.05291228.04804679.02283041.07026901l-.23246783.1716959.08720467.27550878c.01132164.03564912-.02933333.06521637-.05978947.0434152l-.23508772-.16804678-.23508772.16804678c-.03045614.02175439-.07101754-.0077193-.05978947-.0434152l.08720468-.27550878-.23246784-.1716959c-.03008187-.02226901-.01459649-.06994152.02283041-.07026901l.28898246-.00219883.0914152-.27415205c.01174269-.03550877.06198831-.03550877.07382456 0z"/><path d="m3.84416374 3.64332164.09141521.27415204.28898245.00219883c.0374269.00032749.05291228.04804679.02283041.07026901l-.23246783.17169591.08720467.27550877c.01132164.03564912-.02933333.06521637-.05978947.0434152l-.23508772-.16804678-.23508772.16804678c-.03045614.02175439-.07101754-.00776608-.05978947-.0434152l.08720468-.27550877-.23246784-.17169591c-.03008187-.02226901-.01459649-.06994152.02283041-.07026901l.28898246-.00219883.0914152-.27415204c.01174269-.03550877.06198831-.03550877.07382456 0z"/><path d="m3.84416374 5.0774269.09141521.27415205.28898245.00219883c.0374269.00032748.05291228.04804678.02283041.070269l-.23246783.17169591.08720467.27550877c.01132164.03564912-.02933333.06521638-.05978947.04341521l-.23508772-.16804679-.23508772.16804679c-.03045614.02175438-.07101754-.00776609-.05978947-.04341521l.08720468-.27550877-.23246784-.17169591c-.03008187-.022269-.01459649-.06994152.02283041-.070269l.28898246-.00219883.0914152-.27415205c.01174269-.03546199.06198831-.03546199.07382456 0z"/><path d="m4.95728655.07195322.0914152.27415204.28898246.00219883c.0374269.00032749.05291228.04804679.02283041.07026901l-.23246784.17169591.08720468.27550877c.01132164.03564912-.02933333.06521637-.05978947.0434152l-.2351345-.16804678-.23508772.16804678c-.03045614.02175439-.07101755-.00776608-.05978948-.0434152l.08720468-.27550877-.23246784-.17169591c-.03008187-.02226901-.01459649-.06994152.02283041-.07026901l.28898246-.00219883.0914152-.27415204c.01183626-.03550878.06203509-.03550878.07387135 0z"/><path d="m4.95728655 1.50605848.0914152.27415205.28898246.00219883c.0374269.00032748.05291228.04804678.02283041.070269l-.23246784.17169591.08720468.27550877c.01132164.03564912-.02933333.06521638-.05978947.04341521l-.2351345-.16804679-.23508772.16804679c-.03045614.02175438-.07101755-.00776609-.05978948-.04341521l.08720468-.27550877-.23246784-.17169591c-.03008187-.022269-.01459649-.06994152.02283041-.070269l.28898246-.00219883.0914152-.27415205c.01183626-.03546199.06203509-.03546199.07387135 0z"/><path d="m4.95728655 2.94016374.0914152.27415205.28898246.00219883c.0374269.00032749.05291228.04804678.02283041.07026901l-.23246784.1716959.08720468.27550877c.01132164.03564913-.02933333.06521638-.05978947.04341521l-.2351345-.16804678-.23508772.16804678c-.03045614.02175438-.07101755-.00776608-.05978948-.04341521l.08720468-.27550877-.23246784-.1716959c-.03008187-.02226901-.01459649-.06994152.02283041-.07026901l.28898246-.00219883.0914152-.27415205c.01183626-.03546199.06203509-.03546199.07387135 0z"/><path d="m4.95728655 4.37431579.0914152.27415205.28898246.00219883c.0374269.00032748.05291228.04804678.02283041.070269l-.23246784.17169591.08720468.27550877c.01132164.03564912-.02933333.06521638-.05978947.04341521l-.2351345-.16804679-.23508772.16804679c-.03045614.02175438-.07101755-.00776609-.05978948-.04341521l.08720468-.27550877-.23246784-.17169591c-.03008187-.022269-.01459649-.06994152.02283041-.070269l.28898246-.00219883.0914152-.27415205c.01183626-.03550877.06203509-.03550877.07387135 0z"/><path d="m4.95728655 5.80842105.0914152.27415205.28898246.00219883c.0374269.00032749.05291228.04804678.02283041.07026901l-.23246784.1716959.08720468.27550877c.01132164.03564913-.02933333.06521638-.05978947.04341521l-.2351345-.16804678-.23508772.16804678c-.03045614.02175438-.07101755-.00776608-.05978948-.04341521l.08720468-.27550877-.23246784-.1716959c-.03008187-.02226901-.01459649-.06994152.02283041-.07026901l.28898246-.00219883.0914152-.27415205c.01183626-.03555555.06203509-.03555555.07387135 0z"/><path d="m6.07040936.77506433.0914152.27415204.28898246.00219883c.0374269.00032749.05291228.04804679.02283041.07026901l-.23246784.17169591.08720468.27550877c.01132164.03564912-.02933333.06521637-.05978947.0434152l-.23508772-.16804678-.23508772.16804678c-.03045614.02175439-.07101755-.00776608-.05978948-.0434152l.08720468-.27550877-.23246783-.17169591c-.03008188-.02226901-.0145965-.06994152.0228304-.07026901l.28898246-.00219883.09141521-.27415204c.01183625-.03546199.0619883-.03546199.07382456 0z"/><path d="m6.07040936 2.20921637.0914152.27415205.28898246.00219883c.0374269.00032749.05291228.04804679.02283041.07026901l-.23246784.1716959.08720468.27550878c.01132164.03564912-.02933333.06521637-.05978947.0434152l-.23508772-.16804678-.23508772.16804678c-.03045614.02175439-.07101755-.0077193-.05978948-.0434152l.08720468-.27550878-.23246783-.1716959c-.03008188-.02226901-.0145965-.06994152.0228304-.07026901l.28898246-.00219883.09141521-.27415205c.01183625-.03550877.0619883-.03550877.07382456 0z"/><path d="m6.07040936 3.64332164.0914152.27415204.28898246.00219883c.0374269.00032749.05291228.04804679.02283041.07026901l-.23246784.17169591.08720468.27550877c.01132164.03564912-.02933333.06521637-.05978947.0434152l-.23508772-.16804678-.23508772.16804678c-.03045614.02175439-.07101755-.00776608-.05978948-.0434152l.08720468-.27550877-.23246783-.17169591c-.03008188-.02226901-.0145965-.06994152.0228304-.07026901l.28898246-.00219883.09141521-.27415204c.01183625-.03550877.0619883-.03550877.07382456 0z"/><path d="m6.07040936 5.0774269.0914152.27415205.28898246.00219883c.0374269.00032748.05291228.04804678.02283041.070269l-.23246784.17169591.08720468.27550877c.01132164.03564912-.02933333.06521638-.05978947.04341521l-.23508772-.16804679-.23508772.16804679c-.03045614.02175438-.07101755-.00776609-.05978948-.04341521l.08720468-.27550877-.23246783-.17169591c-.03008188-.022269-.0145965-.06994152.0228304-.070269l.28898246-.00219883.09141521-.27415205c.01183625-.03546199.0619883-.03546199.07382456 0z"/><path d="m7.18357895.07195322.0914152.27415204.28898246.00219883c.0374269.00032749.05291228.04804679.02283041.07026901l-.23246784.17169591.08720468.27550877c.01132164.03564912-.02933333.06521637-.05978947.0434152l-.23508772-.16804678-.23508772.16804678c-.03045614.02175439-.07101755-.00776608-.05978948-.0434152l.08720468-.27550877-.23246783-.17169591c-.03008188-.02226901-.0145965-.06994152.02283041-.07026901l.28898245-.00219883.09141521-.27415204c.01174269-.03550878.0619883-.03550878.07382456 0z"/><path d="m7.18357895 1.50605848.0914152.27415205.28898246.00219883c.0374269.00032748.05291228.04804678.02283041.070269l-.23246784.17169591.08720468.27550877c.01132164.03564912-.02933333.06521638-.05978947.04341521l-.23508772-.16804679-.23508772.16804679c-.03045614.02175438-.07101755-.00776609-.05978948-.04341521l.08720468-.27550877-.23246783-.17169591c-.03008188-.022269-.0145965-.06994152.02283041-.070269l.28898245-.00219883.09141521-.27415205c.01174269-.03546199.0619883-.03546199.07382456 0z"/><path d="m7.18357895 2.94016374.0914152.27415205.28898246.00219883c.0374269.00032749.05291228.04804678.02283041.07026901l-.23246784.1716959.08720468.27550877c.01132164.03564913-.02933333.06521638-.05978947.04341521l-.23508772-.16804678-.23508772.16804678c-.03045614.02175438-.07101755-.00776608-.05978948-.04341521l.08720468-.27550877-.23246783-.1716959c-.03008188-.02226901-.0145965-.06994152.02283041-.07026901l.28898245-.00219883.09141521-.27415205c.01174269-.03546199.0619883-.03546199.07382456 0z"/><path d="m7.18357895 4.37431579.0914152.27415205.28898246.00219883c.0374269.00032748.05291228.04804678.02283041.070269l-.23246784.17169591.08720468.27550877c.01132164.03564912-.02933333.06521638-.05978947.04341521l-.23508772-.16804679-.23508772.16804679c-.03045614.02175438-.07101755-.00776609-.05978948-.04341521l.08720468-.27550877-.23246783-.17169591c-.03008188-.022269-.0145965-.06994152.02283041-.070269l.28898245-.00219883.09141521-.27415205c.01174269-.03550877.0619883-.03550877.07382456 0z"/><path d="m7.18357895 5.80842105.0914152.27415205.28898246.00219883c.0374269.00032749.05291228.04804678.02283041.07026901l-.23246784.1716959.08720468.27550877c.01132164.03564913-.02933333.06521638-.05978947.04341521l-.23508772-.16804678-.23508772.16804678c-.03045614.02175438-.07101755-.00776608-.05978948-.04341521l.08720468-.27550877-.23246783-.1716959c-.03008188-.02226901-.0145965-.06994152.02283041-.07026901l.28898245-.00219883.09141521-.27415205c.01174269-.03555555.0619883-.03555555.07382456 0z"/><path d="m8.29670175.77506433.09141521.27415204.28898246.00219883c.0374269.00032749.05291228.04804679.0228304.07026901l-.23246783.17169591.08720468.27550877c.01132163.03564912-.02933334.06521637-.05978948.0434152l-.23508772-.16804678-.23508772.16804678c-.03045614.02175439-.07101754-.00776608-.05978947-.0434152l.08720468-.27550877-.23246784-.17169591c-.03008187-.02226901-.01459649-.06994152.02283041-.07026901l.28898246-.00219883.0914152-.27415204c.01178948-.03546199.06203509-.03546199.07382456 0z"/><path d="m8.29670175 2.20921637.09141521.27415205.28898246.00219883c.0374269.00032749.05291228.04804679.0228304.07026901l-.23246783.1716959.08720468.27550878c.01132163.03564912-.02933334.06521637-.05978948.0434152l-.23508772-.16804678-.23508772.16804678c-.03045614.02175439-.07101754-.0077193-.05978947-.0434152l.08720468-.27550878-.23246784-.1716959c-.03008187-.02226901-.01459649-.06994152.02283041-.07026901l.28898246-.00219883.0914152-.27415205c.01178948-.03550877.06203509-.03550877.07382456 0z"/><path d="m8.29670175 3.64332164.09141521.27415204.28898246.00219883c.0374269.00032749.05291228.04804679.0228304.07026901l-.23246783.17169591.08720468.27550877c.01132163.03564912-.02933334.06521637-.05978948.0434152l-.23508772-.16804678-.23508772.16804678c-.03045614.02175439-.07101754-.00776608-.05978947-.0434152l.08720468-.27550877-.23246784-.17169591c-.03008187-.02226901-.01459649-.06994152.02283041-.07026901l.28898246-.00219883.0914152-.27415204c.01178948-.03550877.06203509-.03550877.07382456 0z"/><path d="m8.29670175 5.0774269.09141521.27415205.28898246.00219883c.0374269.00032748.05291228.04804678.0228304.070269l-.23246783.17169591.08720468.27550877c.01132163.03564912-.02933334.06521638-.05978948.04341521l-.23508772-.16804679-.23508772.16804679c-.03045614.02175438-.07101754-.00776609-.05978947-.04341521l.08720468-.27550877-.23246784-.17169591c-.03008187-.022269-.01459649-.06994152.02283041-.070269l.28898246-.00219883.0914152-.27415205c.01178948-.03546199.06203509-.03546199.07382456 0z"/><path d="m9.40987135.07195322.0914152.27415204.28898246.00219883c.0374269.00032749.05291228.04804679.02283041.07026901l-.23246784.17169591.08720468.27550877c.01132163.03564912-.02933334.06521637-.05978948.0434152l-.23508772-.16804678-.23508771.16804678c-.03045615.02175439-.07101755-.00776608-.05978948-.0434152l.08720468-.27550877-.23246784-.17169591c-.03008187-.02226901-.01459649-.06994152.02283041-.07026901l.28898246-.00219883.0914152-.27415204c.01178948-.03550878.06194152-.03550878.07382457 0z"/><path d="m9.40987135 1.50605848.0914152.27415205.28898246.00219883c.0374269.00032748.05291228.04804678.02283041.070269l-.23246784.17169591.08720468.27550877c.01132163.03564912-.02933334.06521638-.05978948.04341521l-.23508772-.16804679-.23508771.16804679c-.03045615.02175438-.07101755-.00776609-.05978948-.04341521l.08720468-.27550877-.23246784-.17169591c-.03008187-.022269-.01459649-.06994152.02283041-.070269l.28898246-.00219883.0914152-.27415205c.01178948-.03546199.06194152-.03546199.07382457 0z"/><path d="m9.40987135 2.94016374.0914152.27415205.28898246.00219883c.0374269.00032749.05291228.04804678.02283041.07026901l-.23246784.1716959.08720468.27550877c.01132163.03564913-.02933334.06521638-.05978948.04341521l-.23508772-.16804678-.23508771.16804678c-.03045615.02175438-.07101755-.00776608-.05978948-.04341521l.08720468-.27550877-.23246784-.1716959c-.03008187-.02226901-.01459649-.06994152.02283041-.07026901l.28898246-.00219883.0914152-.27415205c.01178948-.03546199.06194152-.03546199.07382457 0z"/><path d="m9.40987135 4.37431579.0914152.27415205.28898246.00219883c.0374269.00032748.05291228.04804678.02283041.070269l-.23246784.17169591.08720468.27550877c.01132163.03564912-.02933334.06521638-.05978948.04341521l-.23508772-.16804679-.23508771.16804679c-.03045615.02175438-.07101755-.00776609-.05978948-.04341521l.08720468-.27550877-.23246784-.17169591c-.03008187-.022269-.01459649-.06994152.02283041-.070269l.28898246-.00219883.0914152-.27415205c.01178948-.03550877.06194152-.03550877.07382457 0z"/><path d="m9.40987135 5.80842105.0914152.27415205.28898246.00219883c.0374269.00032749.05291228.04804678.02283041.07026901l-.23246784.1716959.08720468.27550877c.01132163.03564913-.02933334.06521638-.05978948.04341521l-.23508772-.16804678-.23508771.16804678c-.03045615.02175438-.07101755-.00776608-.05978948-.04341521l.08720468-.27550877-.23246784-.1716959c-.03008187-.02226901-.01459649-.06994152.02283041-.07026901l.28898246-.00219883.0914152-.27415205c.01178948-.03555555.06194152-.03555555.07382457 0z"/></g></g></svg>