<svg height="16" viewBox="0 0 24 16" width="24" xmlns="http://www.w3.org/2000/svg"><g fill="none"><path d="m22.2025781.0129375h-20.40515623c-.99271874 0-1.79742187.80470313-1.79742187 1.79742187v12.12932813c0 .9926719.80470313 1.7974219 1.79742187 1.7974219h20.40515623c.9926719 0 1.7974219-.8047032 1.7974219-1.7974219v-12.12932813c0-.99271874-.8047031-1.79742187-1.7974219-1.79742187z" fill="#41479b"/><path d="m23.9751094 1.51321875c-.1416563-.85120312-.8811094-1.50032812-1.7725313-1.50032812h-.4676718l-7.6659375 5.02251562v-5.02251562h-4.13793755v5.0225625l-7.6659375-5.0225625h-.46767188c-.89142187 0-1.63087499.649125-1.77253124 1.50037499l6.55209375 4.29281251h-6.57698438v4.1379375h6.57698438l-6.55209375 4.29271877c.14165625.8512031.88110937 1.5003281 1.77253124 1.5003281h.46767188l7.6659375-5.0225156v5.0225156h4.13793745v-5.0225156l7.6659376 5.0225156h.4676718c.8914219 0 1.630875-.6490781 1.7725313-1.5003281l-6.5520938-4.29281252h6.5769844v-4.1379375h-6.5769844z" fill="#f5f5f5"/><g fill="#ff4b55"><path d="m13.2413906.0129375h-2.4827812v6.62067187h-10.7586094v2.48278126h10.7586094v6.62067187h2.4827812v-6.62067187h10.7586094v-2.48278126h-10.7586094z"/><path d="m1.16217187 15.6211875 8.74607813-5.67721875h-1.5200625l-7.9558125 5.16431255c.19467188.2272031.44484375.4052343.72979687.5129062z"/><path d="m16.2369375 9.94396875h-1.5200625l8.4710625 5.49867185c.2370469-.1556719.4348594-.3659531.5759531-.6128906z"/><path d="m.18979688 1.00664062 7.39359374 4.79939063h1.5200625l-8.37806249-5.4384375c-.22495313.1674375-.40903125.38634375-.53559375.63904687z"/><path d="m15.5890312 5.80603125 7.9703907-5.17382812c-.1968281-.22645313-.4489688-.40345313-.7358906-.5090625l-8.7545626 5.68289062z"/></g></g></svg>