<svg height="26" viewBox="0 0 26 26" width="26"
    xmlns="http://www.w3.org/2000/svg">
    <g fill="none" fill-rule="evenodd">
        <path d="m.270833.270833h25.458333v25.458333h-25.458333z" opacity="0" stroke="#000" stroke-width=".541667"/>
        <rect fill="#8a8fa8" height="21.125" rx="1.083333" width="17.333333" x="8.125" y="4.333333"/>
        <rect fill="#ebebf5" height="20.583333" rx="1.083333" width="17.333333" x=".541667" y=".541667"/>
        <path d="m3.92889524 8.03755476c0 .07554461-.02446261.13772276-.07301889.18625067-.04835763.04855628-.11053578.07284861-.18608039.07284861h-1.55581597c-.07560136 0-.13775113-.02429233-.18636418-.07284861-.04864142-.04855628-.07293375-.11070606-.07293375-.18625067v-1.55581596c0-.07554461.02426396-.13772276.07293375-.18625066.04861305-.04847115.11076282-.0727351.18636418-.0727351h1.55581597c.07554461 0 .13772276.02426395.18608039.0727351.04855628.04855628.07301889.11070605.07301889.18625066zm1.97284377-4.78851224c-.06759852.19987253-.14314313.36336333-.22686086.49024535-.08368935.12693878-.20395909.25660194-.36066733.38887595-.15636769.13233077-.28069561.22691762-.37275674.28373216-.09166382.05661588-.22413648.13374971-.39679366.23086228-.17830457.10253293-.32536399.23628265-.44143365.40110725-.1161548.16471108-.17421802.29834728-.17421802.40088022 0 .07577164-.0244626.13789303-.07304726.18647769-.04844277.04855629-.11059254.07282024-.18616553.07282024h-1.55573083c-.07560137 0-.13775114-.02426395-.18636418-.07282024-.0486698-.04858466-.07287699-.11070605-.07287699-.18647769v-.29170663c0-.36188762.1416958-.70098699.42531444-1.01687243.28361864-.31602734.59555942-.54964237.93590746-.70090186.25909928-.11879404.44282423-.24036921.55083429-.36458362.10818033-.12421441.16218536-.28912415.16218536-.49427515 0-.17830458-.1013694-.33762367-.3039663-.47815595-.20259691-.14039037-.43334568-.21059975-.69270037-.21059975-.28095102 0-.51314711.06484577-.69684367.1945373-.17830458.12954964-.41050067.37806359-.6968153.74531483-.04861305.06487414-.11615481.09736797-.20259691.09736797-.06481739 0-.1161548-.01617596-.15392711-.04849952l-1.06943014-.81027411c-.12421441-.09725446-.14581075-.21062813-.06487415-.34029129.69148007-1.15053701 1.69342521-1.72580552 3.00594894-1.72580552.47003958 0 .92923842.11076281 1.37753977.33226006.44827297.22138373.82239189.53471507 1.12227164.93988051.29951082.40502353.44966353.84532203.44966353 1.32066847-.0003973.23764483-.0342817.45630419-.10159643.65623348z" fill="#8a8fa8" fill-rule="nonzero" transform="translate(5.958333 6.5)"/>
    </g>
</svg>
