<svg height="29" viewBox="0 0 29 29" width="29" xmlns="http://www.w3.org/2000/svg"><g fill="none" fill-rule="evenodd"><path d="m-50-238h575v484h-575z" fill="#fff"/><g><path d="m0 0h29v29h-29z"/><g fill="#8a8fa8" fill-rule="nonzero"><path d="m18.8535439 9.21337657h-10.92551043c-1.06482426 0-1.92803347.86320923-1.92803347 1.92803343v10.9255105c0 1.0648243.86320921 1.9280335 1.92803347 1.9280335h10.92551043c1.0648243 0 1.9280335-.8632092 1.9280335-1.9280335v-10.9255105c0-1.0648242-.8632092-1.92803343-1.9280335-1.92803343zm.6426904 12.85358163c0 .3549539-.2877364.6426903-.6426904.6426903h-10.92551043c-.35495397 0-.64269037-.2877364-.64269037-.6426903v-10.9255482c0-.3549539.2877364-.6426903.64269037-.6426903h10.92551043c.354954 0 .6426904.2877364.6426904.6426903z"/><path d="m22.0669582 6h-11.5682009c-1.06482425 0-1.92803345.86320921-1.92803345 1.92803347 0 .35495398.2877364.64269038.64269038.64269038.35495397 0 .64265272-.2877364.64265272-.64269038 0-.35495397.28773635-.64269037.64269035-.64269037h11.5682009c.3549539 0 .6426903.2877364.6426903.64269037v11.56820083c0 .354954-.2877364.6426904-.6426903.6426904-.354954 0-.6426904.2877364-.6426904.6426904 0 .3549539.2877364.6426903.6426904.6426903 1.0648242 0 1.9280334-.8632092 1.9280334-1.9280334v-11.56823853c0-1.06482426-.8632092-1.92803347-1.9280334-1.92803347z"/></g></g></g></svg>