<svg height="20" viewBox="0 0 20 20" width="20" xmlns="http://www.w3.org/2000/svg"><g fill="none" fill-rule="evenodd"><path d="m-180-242h575v484h-575z" fill="#fff"/><path d="m7.12695312 5.70898438 3.37304688 3.37304687 3.3730469-3.37304687c.3915612-.39156126 1.0264075-.39156126 1.4179687 0 .3915613.39156125.3915613 1.02640749 0 1.41796874l-3.3730468 3.37304688 3.3730468 3.3730469c.3915613.3915612.3915613 1.0264075 0 1.4179687-.3915612.3915613-1.0264075.3915613-1.4179687 0l-3.3730469-3.3730468-3.37304688 3.3730468c-.39156125.3915613-1.02640749.3915613-1.41796874 0-.39156126-.3915612-.39156126-1.0264075 0-1.4179687l3.37304687-3.3730469-3.37304687-3.37304688c-.39156126-.39156125-.39156126-1.02640749 0-1.41796874.39156125-.39156126 1.02640749-.39156126 1.41796874 0z" fill="#344acf" fill-rule="nonzero" stroke="#3244d2" stroke-width=".8"/></g></svg>