<svg height="75" viewBox="0 0 69 75" width="69" xmlns="http://www.w3.org/2000/svg" xmlns:xlink="http://www.w3.org/1999/xlink"><defs><path id="a" d="m21.7620444 12.4023086h33.679841c1.332732 0 2.4131248 1.0803928 2.4131248 2.4131249 0 .0339018-.0007144.0677998-.0021428.1016715l-1.6010373 37.9660934c-.0497217 1.1790712-.9449109 2.1492145-2.1161912 2.2933795l-32.0788037 3.9483657c-1.3227502.1628084-2.5270334-.7775101-2.6898419-2.1002603-.0120379-.0978024-.0180737-.1962504-.0180737-.2947909v-41.9144589c0-1.3327321 1.0803927-2.4131249 2.4131248-2.4131249z"/><filter id="b" height="135.5%" width="143.8%" x="-22%" y="-13.8%"><feOffset dx="0" dy="2" in="SourceAlpha" result="shadowOffsetOuter1"/><feGaussianBlur in="shadowOffsetOuter1" result="shadowBlurOuter1" stdDeviation="2.5"/><feColorMatrix in="shadowBlurOuter1" type="matrix" values="0 0 0 0 0.0397353932   0 0 0 0 0.111710693   0 0 0 0 0.372310915  0 0 0 0.05 0"/></filter><rect id="c" height="45.849372" rx="2.413125" width="38.609997" x="9.44892" y=".027309"/><filter id="d" height="137.1%" width="144%" x="-22%" y="-14.2%"><feOffset dx="0" dy="2" in="SourceAlpha" result="shadowOffsetOuter1"/><feGaussianBlur in="shadowOffsetOuter1" result="shadowBlurOuter1" stdDeviation="2.5"/><feColorMatrix in="shadowBlurOuter1" type="matrix" values="0 0 0 0 0.0397353932   0 0 0 0 0.111710693   0 0 0 0 0.372310915  0 0 0 0.05 0"/></filter><circle id="e" cx="10.453054" cy="10.453054" r="10.453054"/><filter id="f" height="210%" width="210%" x="-55%" y="-45.4%"><feOffset dx="0" dy="2" in="SourceAlpha" result="shadowOffsetOuter1"/><feGaussianBlur in="shadowOffsetOuter1" result="shadowBlurOuter1" stdDeviation="3.5"/><feColorMatrix in="shadowBlurOuter1" type="matrix" values="0 0 0 0 0.0397353932   0 0 0 0 0.111710693   0 0 0 0 0.372310915  0 0 0 0.08 0"/></filter></defs><g fill="none" fill-rule="evenodd"><g fill-rule="nonzero" transform="translate(26.638984 23.440943)"><ellipse cx="4.832196" cy="1.464305" fill="#ff6339" rx="1.229565" ry="1.285328"/><path d="m23.2608117 5.66477057-13.70723496-2.48175681c-.45573895-.09316319-.75296315-.53278967-.66864561-.98899861.03115672-.21873214.14888753-.41590312.32688555-.54745519.17799801-.13155208.40142718-.18652045.62036239-.15262247l13.72209373 2.4817568c.455739.0931632.7529632.53278967.6686456.98899861-.0299325.22222414-.1495704.42262354-.3312105.55479406-.18164.13217052-.4095286.184649-.6308962.14528361z" fill="#3858cd"/><g fill="#9babe6"><ellipse cx="3.439184" cy="9.905982" rx="1.229565" ry="1.285328"/><path d="m21.462898 14.0323655-13.7258085-2.4669403c-.45475822-.0966151-.7496132-.5368162-.66493091-.9927027.03012736-.2189622.14776521-.4164733.3261665-.5476258s.40240554-.18480108.62108144-.14874779l13.72209377 2.47805269c.4562649.0949117.7531227.5356408.6686456.9927027-.0328223.2169314-.1515945.4116476-.329678.5404774s-.4005737.1809906-.6175699.1447838z"/><ellipse cx="2.042458" cy="18.347659" rx="1.229565" ry="1.285328"/><path d="m20.4710736 22.5481251-13.72209372-2.4632362c-.45626487-.0949117-.75312276-.5356409-.66864561-.9927028.03012737-.2189621.14776521-.4164732.3261665-.5476257s.40240554-.1848011.62108145-.1487478l13.72209378 2.4780527c.4562648.0949116.7531227.5356408.6686456.9927027-.0337104.2162533-.1528559.4100427-.3308354.5381012-.1779794.1280585-.3999715.179722-.6164126.1434559z"/></g></g><g transform="translate(.45108 2.797691)"><path d="m10.5559853 61.0730553h36.0208316c2.3373021-.0639234 4.1838059-2.01746 4.13126-4.3707288v-33.7899682c.054647-2.3547292-1.7924588-4.310593-4.13126-4.3745097h-38.98782742c-2.33911618.0598146-4.18797242 2.0158399-4.13126001 4.3707288v30.6518152c-.00751138 4.1552171 3.17355883 7.5126627 7.09825583 7.5126627z" fill="#e1e1e7" fill-rule="nonzero"/><g fill-rule="nonzero" transform="matrix(.93969262 .34202014 -.34202014 .93969262 14.619995 -11.053558)"><use fill="#000" filter="url(#b)" xlink:href="#a"/><use fill="#fff" xlink:href="#a"/></g><g fill-rule="nonzero"><use fill="#000" filter="url(#d)" xlink:href="#c"/><use fill="#fff" xlink:href="#c"/></g><path d="m15.481732 10.381058h21.718124v2.413125h-21.718124z" fill="#ebebf5"/><path d="m15.481732 18.826995h12.065624v2.413125h-12.065624z" fill="#ebebf5"/><g fill-rule="nonzero"><rect fill="#3858cd" height="1.75056" rx=".851517" width="4.968779" x="35.039334" y="27.491037"/><ellipse cx="13.087321" cy="37.109665" fill="#9babe6" rx="1.243134" ry="1.311975"/><rect fill="#9babe6" height="1.75056" rx=".851517" width="4.968779" x="35.039334" y="36.236276"/><rect fill="#9babe6" height="1.75056" rx=".851517" width="15.736345" x="16.816722" y="36.236276"/><ellipse cx="13.087321" cy="45.854904" fill="#9babe6" rx="1.243134" ry="1.311975"/><rect fill="#9babe6" height="1.75056" rx=".851517" width="4.968779" x="35.039334" y="44.981514"/><rect fill="#9babe6" height="1.75056" rx=".851517" width="15.736345" x="17.229848" y="44.981514"/><path d="m42.8511715 23.1732409c2.163615.0368342 3.9485125 1.7161018 4.13126 3.8867727l3.5941962 29.1545759c.2741655 2.5899214-1.6449926 4.8584658-4.13126 4.8584658h-38.68361644c-2.11633913-.0443943-3.87150504-1.6624808-4.10121448-3.7809073l-3.62048604-23.7440975c-.34552357-2.6466351 1.58865726-4.975674 4.10121448-4.975674l22.73695278-.0529327c.6044648-.0194876 1.1726557-.2950136 1.5645861-.7586958s.5711604-1.0724097.4935326-1.6762085c-.096142-.7250705.1181444-1.4571285.589489-2.0138476s1.1553855-.8857022 1.8817556-.9050128z" fill="#cdcfd9"/></g></g><g fill-rule="nonzero" transform="translate(35.475 44.9)"><use fill="#000" filter="url(#f)" xlink:href="#e"/><use fill="#8a8fa8" xlink:href="#e"/></g><path d="m12.7750001 4.7750001h-6v-6h-2v6h-6v2h6v6h2v-6h6z" fill="#fff" transform="translate(40.425 49.85)"/></g></svg>