<svg height="98" viewBox="0 0 99 98" width="99" xmlns="http://www.w3.org/2000/svg"><g fill="none" fill-rule="evenodd" transform="translate(-4 -6)"><rect fill="#f5f6fc" height="78" opacity=".25" rx="15.280898" transform="matrix(.57357644 -.81915204 .81915204 .57357644 -21.704786 67.912766)" width="78" x="15.377212" y="15.803636"/><rect fill="#fff" height="74" rx="15.280898" transform="matrix(.70710678 -.70710678 .70710678 .70710678 -23.074639 54.292893)" width="74" x="17" y="18"/><rect fill="#ebebf5" height="74" opacity=".4" rx="15.280898" transform="matrix(.70710678 -.70710678 .70710678 .70710678 -23.074639 54.292893)" width="74" x="17" y="18"/><rect fill="#ff5e5e" height="14" rx="2.890981" transform="matrix(.70710678 -.70710678 .70710678 .70710678 8.188817 53.769553)" width="14" x="62" y="10"/><rect fill="#151f51" height="10" rx="2.064986" transform="matrix(.70710678 -.70710678 .70710678 .70710678 -53.346717 31.209632)" width="10" x="6" y="75"/><rect fill="#f5f6fc" height="10" rx="2.064986" transform="matrix(.70710678 -.70710678 .70710678 .70710678 -40.107648 91.171573)" width="10" x="85" y="89"/><path d="m20 0-13.75 14-6.25-6.36363636" stroke="#364fcc" stroke-linecap="round" stroke-linejoin="round" stroke-width="4.5" transform="translate(44.072323 48)"/></g></svg>