<svg height="26" viewBox="0 0 121 26" width="121" xmlns="http://www.w3.org/2000/svg"><g fill="#231e3e"><path d="m47.5370287 10.2075643c.0050078.5515696-.129609 1.0954367-.391314 1.5809524-.2949611.5178179-.7396323.9342622-1.275582 1.1946104v.0406676c.3175221.1078184.6211672.2528588.904596.4320931.2669707.169836.5053862.3808681.706398.6252641.1954214.2464646.3498611.5228187.45738.8184352.1109381.3273477.1659164.6710599.162624 1.0166897-.0039979.3542953-.0552709.7064705-.15246 1.0471904-.114985.3874615-.2992203.7508701-.543774 1.0726076-.2813132.3761008-.6251101.7010815-1.0164.9607717-.4997012.3207813-1.0492888.5561405-1.62624.6964324-.167706.0355842-.345576.0762517-.543774.1067524s-.411642.0610014-.650496.0864187c-.238854.0254172-.5082.0406675-.7927921.0508344h-.980826-3.86232v-13.26780016h4.614456c.8051979-.02364136 1.6092024.07753088 2.3834581.29992345.4169674.12752393.8113743.31963768 1.16886.56934622.3132339.21681195.5909617.48090007.823284.78285104.2067922.27692244.3664797.58608309.472626.91502071.0995117.31384231.1475655.64173134.142296.97093864zm-4.9956061 1.9317104c.5008731.0236725 1.0018959-.043494 1.4788621-.1982545.3234205-.1177.5986711-.3393935.782628-.6303476.1551389-.2759798.2340692-.5882821.22869-.9048538.0062171-.3326447-.0856989-.65974689-.264264-.94043797-.222746-.30562944-.5470494-.52189336-.91476-.6100138-.2040664-.05920872-.4134194-.0983672-.625086-.11691931-.23716-.02033379-.5319161-.03050069-.8842681-.03050069h-1.992144v3.43132767zm-2.190342 2.0333793v3.741418h1.585584c.421806 0 .78771 0 1.0926301-.0355841.2627729-.0077335.5244958-.0366332.782628-.0864187.2934263-.0589862.5773091-.1582024.843612-.29484.2159564-.1102992.4104426-.2583574.574266-.4371765.1345901-.1455853.2352552-.3191953.294756-.5083449.0616003-.1956941.0924597-.399767.091476-.6049303.0066588-.3490044-.1023425-.6904009-.310002-.9709387-.2439731-.3070242-.5810562-.5264583-.960498-.6252641-.2289456-.0638301-.4640502-.1030254-.701316-.1169193-.3293231-.0318901-.6601622-.0454669-.9909901-.0406676z"/><path d="m55.3531448 6.66948424v11.24967116h6.2102041v2.0333794h-8.6394001v-13.28305056z"/><path d="m77.7546012 13.3135512c.0112757.9461012-.1347026 1.8875002-.43197 2.7857297-.2658052.8152358-.7004513 1.5652573-1.275582 2.2011332-.5651482.6177176-1.2591197 1.103636-2.0328001 1.4233655-1.7680082.6711224-3.7205519.6711224-5.4885601 0-.7740826-.3189947-1.4682043-.8050184-2.0328-1.4233655-.5645834-.6312876-.9935551-1.3718207-1.260336-2.1757159-.2948258-.8988172-.4407409-1.8398084-.43197-2.7857297-.0087709-.9459213.1371442-1.8869125.43197-2.7857297.2678594-.8049308.6966719-1.54691865 1.260336-2.18079936.5648935-.61676044 1.2590361-1.10106285 2.0328-1.41828209 1.7667793-.67779312 3.7217808-.67779312 5.4885601 0 .7733625.31795563 1.4673544.80215288 2.0328001 1.41828209.5654186.6326113.9944519 1.3749812 1.260336 2.18079936.2996748.8892766.4507718 1.8218795.447216 2.7603124zm-2.5105081 0c.0123809-.7179911-.0888147-1.4334246-.299838-2.1197979-.1686427-.5587466-.4487037-1.0775259-.823284-1.52503453-.3399847-.39554868-.7682507-.7055205-1.250172-.90485381-1.0222911-.39305435-2.153959-.39305435-3.17625 0-.4863883.19432969-.9199783.50089026-1.2654181.89468691-.380028.44619013-.6653247.96505933-.83853 1.52503453-.2110233.6863733-.3122188 1.4018068-.299838 2.1197979-.0123808.7179911.0888147 1.4334246.299838 2.119798.1679866.5590194.4481159 1.0779251.823284 1.5250345.3415625.3925861.769499.7005795 1.2501721.8997704 1.0197399.4065732 2.15651.4065732 3.17625 0 .480673-.1991909.9086096-.5071843 1.250172-.8997704.3751682-.4471094.6552975-.9660151.823284-1.5250345.2099643-.6831226.311148-1.3950413.299838-2.1096311z"/><path d="m89.1179533 8.47919185c-.6248441-.00732131-1.2454848.10304625-1.82952.3253407-.543475.20957761-1.0344032.53579955-1.438206.95568829-.4159916.43742276-.7362001.95682776-.94017 1.52503446-.2338029.6747864-.3473309 1.3853987-.335412 2.0994642-.012452.7000478.0905696 1.3973594.30492 2.06388.1850543.552437.4866164 1.0586508.884268 1.484367.3940102.4027948.8757975.7089996 1.407714.8946869.6037971.2121727 1.2404544.3154438 1.88034.3050069.5103561-.0020889 1.0198901-.0411644 1.5246001-.1169193.4986402-.0749638.9899848-.1923079 1.468698-.350758v2.1096311c-.4902925.1389175-.9894872.2442199-1.494108.3151738-.5540036.0765593-1.1127164.1139307-1.6719781.1118359-1.0099173.0197357-2.0151696-.1421147-2.967888-.4778442-.8028989-.291753-1.5316592-.7569039-2.13444-1.3623641-.5767224-.5946098-1.0141522-1.3099766-1.2806641-2.0943808-.2974143-.8701534-.4435198-1.7848624-.43197-2.7043945-.0089281-.9596037.1457474-1.9137078.45738-2.8213138.2871216-.83598806.7399939-1.60539887 1.3314841-2.26213455.6052498-.65461141 1.3481228-1.16678428 2.175096-1.49961726.9382405-.37755888 1.9413583-.56753204 2.952642-.55917932.5341065-.00144819 1.0675533.03763707 1.5957481.11691931.4625699.0662371.91835.17340997 1.361976.32025725v2.06896348c-.9100049-.29985614-1.8624085-.45091093-2.8205101-.44734346z"/><path d="m99.3073635 19.9525348h-2.429196v-13.28305056h8.4564485v2.03337934h-6.0272525v3.43132762h5.1531485v2.0333794h-5.1531485z"/><path d="m113.328602 9.399296c.640332.9353545 1.09263 1.6012862 1.351812 2.0333793h.05082c.35574-.5591793.802956-1.2200276 1.336566-1.99779516l1.895586-2.73997866h2.800182l-4.644948 6.52206422 4.832982 6.7355691h-2.759526l-2.073456-2.9687339c-.5082-.7269331-.980826-1.4131986-1.407714-2.06388h-.040656c-.452298.6760986-.919842 1.3623642-1.412796 2.06388l-2.073456 2.9687339h-2.759526l4.817736-6.7355691-4.629702-6.53223112h2.800182z"/><path d="m22.4980143 6.56781527-11.3735161-6.56781527v3.48724557l8.3548081 4.82419249v9.65346844l-6.3575821 3.6702497v3.4872456l9.3762901-5.4138725z"/><ellipse cx="1.519518" cy="8.906202" rx="1.489026" ry="1.48945"/><ellipse cx="5.5902" cy="11.285255" rx="1.489026" ry="1.48945"/><ellipse cx="9.691374" cy="13.577891" rx="1.489026" ry="1.48945"/><ellipse cx="1.55001" cy="13.720227" rx="1.489026" ry="1.48945"/><ellipse cx="5.620692" cy="16.104364" rx="1.489026" ry="1.48945"/><ellipse cx="9.721866" cy="18.397" rx="1.489026" ry="1.48945"/><ellipse cx="1.489026" cy="18.513919" rx="1.489026" ry="1.48945"/><ellipse cx="5.559708" cy="20.892973" rx="1.489026" ry="1.48945"/><ellipse cx="9.660882" cy="23.185608" rx="1.489026" ry="1.48945"/></g></svg>